# xmcd
#
# Track frame offsets: 
#        150
#        16023
#        21041
#        39669
#        43384
#        61632
#        66076
#        81832
#        87068
#        103211
#        108431
#        127440
#        134507
#        152499
#        157649
#        174827
#        179911
#        194625
#        199189
#        214076
#
# Disc length: 2909 seconds
#
# Revision: 0
# Processed by: cddbd v1.4PL0 Copyright (c) Steve Scherf et al.
# Submitted via: ExactAudioCopy v0.90b4
#
DISCID=160b5b14
DTITLE=Dave Sheriff - Line Dance Top 10
DYEAR=1900
DGENRE=Country
TTITLE0=Move That Way
TTITLE1=Teaching Speed
TTITLE2=Spanish Stomp
TTITLE3=Teaching Speed
TTITLE4=Tropical Moment
TTITLE5=Teaching Speed
TTITLE6=Saddle Creek Boogie
TTITLE7=Teaching Speed
TTITLE8=Boogie Woogie Sheriff
TTITLE9=Teaching Speed
TTITLE10=Red Hot Salsa
TTITLE11=Teaching Speed
TTITLE12=Valentine Waltz
TTITLE13=Teaching Speed
TTITLE14=When You Move That Way
TTITLE15=Teaching Speed
TTITLE16=Bronco's Rodeo
TTITLE17=Teaching Speed
TTITLE18=Mirror Image
TTITLE19=Teaching Speed
EXTD=
EXTT0=
EXTT1=
EXTT2=
EXTT3=
EXTT4=
EXTT5=
EXTT6=
EXTT7=
EXTT8=
EXTT9=
EXTT10=
EXTT11=
EXTT12=
EXTT13=
EXTT14=
EXTT15=
EXTT16=
EXTT17=
EXTT18=
EXTT19=
PLAYORDER=
